<svg data-v-fde0c5aa="" xmlns="http://www.w3.org/2000/svg" viewBox="0 0 300 300" class="iconLeftSlogan"><!----><defs data-v-fde0c5aa=""><!----></defs><rect data-v-fde0c5aa="" fill="transparent" x="0" y="0" width="300px" height="300px" class="logo-background-square"></rect><defs data-v-fde0c5aa=""><!----></defs><g data-v-fde0c5aa="" id="ce474ab5-67ba-4cf2-bceb-eeb0ce594970" fill="#000000" transform="matrix(1.3107847563773827,0,0,1.3107847563773827,116.44285628012481,128.8517758095184)"><path d="M0.28 13.33L0.28 13.33Q0.28 13.13 0.49 13.06L0.49 13.06Q0.94 12.89 1.27 12.31Q1.61 11.73 2.94 8.83L2.94 8.83Q4.31 5.87 5.36 3.63L5.36 3.63Q5.46 3.42 5.54 3.36Q5.61 3.30 5.78 3.30L5.78 3.30Q5.91 3.30 5.95 3.36Q5.99 3.42 6.13 3.82L6.13 3.82Q6.22 4.06 6.28 4.23Q6.34 4.40 6.48 4.77Q6.62 5.15 6.79 5.56L6.79 5.56Q7.24 6.66 8.34 9.22Q9.44 11.77 9.53 11.98L9.53 11.98Q9.77 12.46 10.07 12.71Q10.36 12.95 10.58 12.97Q10.79 12.99 10.94 13.04Q11.09 13.09 11.09 13.26L11.09 13.26Q11.09 13.47 10.71 13.47L10.71 13.47Q10.56 13.47 10.11 13.43Q9.66 13.38 9.45 13.38L9.45 13.38Q9.18 13.38 8.76 13.41Q8.34 13.44 8.15 13.44L8.15 13.44Q7.71 13.44 7.59 13.40Q7.48 13.37 7.48 13.24L7.48 13.24Q7.48 13.15 7.59 13.08Q7.70 13.02 7.83 13.00Q7.95 12.98 8.06 12.87Q8.18 12.77 8.18 12.59L8.18 12.59Q8.18 12.28 7.83 11.33Q7.48 10.37 7.24 9.93L7.24 9.93Q7.11 9.69 6.66 9.69L6.66 9.69Q6.59 9.69 6.05 9.70Q5.50 9.72 4.97 9.72L4.97 9.72L4.23 9.72Q3.60 9.72 3.44 9.79Q3.28 9.86 3.15 10.12L3.15 10.12Q3.07 10.30 2.87 10.70Q2.67 11.10 2.60 11.26Q2.53 11.41 2.43 11.65Q2.32 11.90 2.29 12.05Q2.25 12.19 2.25 12.31L2.25 12.31Q2.25 12.63 2.42 12.80Q2.58 12.96 2.77 12.98Q2.97 13.01 3.13 13.06Q3.29 13.12 3.29 13.26L3.29 13.26Q3.29 13.36 3.25 13.40Q3.21 13.45 3.05 13.45L3.05 13.45Q2.97 13.45 2.57 13.45Q2.17 13.44 1.89 13.44L1.89 13.44Q1.58 13.44 1.20 13.47Q0.81 13.50 0.69 13.50L0.69 13.50Q0.28 13.50 0.28 13.33ZM3.79 8.71L3.79 8.71Q3.79 8.89 3.92 8.93Q4.05 8.97 4.51 8.97L4.51 8.97L4.94 8.97L6.27 8.96Q6.82 8.96 6.82 8.74L6.82 8.74Q6.82 8.55 6.13 7.01Q5.45 5.46 5.26 5.46L5.26 5.46Q5.14 5.46 4.47 7.01Q3.79 8.55 3.79 8.71ZM11.65 3.68L11.65 3.68Q11.65 3.57 11.79 3.49Q11.94 3.42 12.21 3.35Q12.49 3.28 12.61 3.22L12.61 3.22Q13.50 2.83 13.62 2.83L13.62 2.83Q13.80 2.83 13.80 3.15L13.80 3.15Q13.80 3.22 13.76 3.49Q13.71 3.75 13.71 4.02L13.71 4.02Q13.69 5.28 13.67 6.15Q13.65 7.03 13.64 7.33Q13.62 7.63 13.62 7.83Q13.61 8.02 13.61 8.13L13.61 8.13Q13.61 8.40 13.72 8.40L13.72 8.40Q13.75 8.40 14.01 8.14Q14.27 7.88 14.72 7.62Q15.18 7.36 15.69 7.36L15.69 7.36Q16.83 7.36 17.46 8.04Q18.09 8.71 18.09 10.12L18.09 10.12L18.09 12.15Q18.09 12.29 18.12 12.45Q18.14 12.61 18.26 12.78Q18.37 12.95 18.55 12.96L18.55 12.96Q19.31 13.03 19.31 13.26Q19.31 13.48 18.87 13.48L18.87 13.48Q18.80 13.48 18.33 13.45Q17.86 13.41 17.70 13.41L17.70 13.41Q17.57 13.41 17.12 13.43Q16.66 13.45 16.62 13.45L16.62 13.45Q16.30 13.45 16.30 13.31L16.30 13.31Q16.30 13.16 16.41 13.11Q16.53 13.06 16.67 13.06Q16.81 13.06 16.93 12.91Q17.05 12.75 17.05 12.43L17.05 12.43Q17.05 12.38 17.06 12.29Q17.07 12.21 17.07 12.06Q17.07 11.91 17.07 11.41Q17.08 10.91 17.08 10.11L17.08 10.11Q17.08 9.25 16.56 8.63Q16.04 8.01 15.34 8.01L15.34 8.01Q14.69 8.01 13.99 8.55L13.99 8.55Q13.73 8.75 13.66 9.19Q13.59 9.63 13.59 11.14L13.59 11.14L13.59 11.47Q13.59 12.10 13.70 12.48Q13.80 12.87 14.15 13.02L14.15 13.02Q14.27 13.06 14.46 13.08Q14.66 13.09 14.76 13.13Q14.87 13.16 14.87 13.27L14.87 13.27Q14.87 13.44 14.71 13.44L14.71 13.44L14.35 13.43Q13.99 13.41 13.62 13.39Q13.24 13.37 13.22 13.37L13.22 13.37Q13.12 13.37 12.73 13.40Q12.33 13.44 12.22 13.44L12.22 13.44Q12.04 13.44 11.95 13.42Q11.86 13.40 11.85 13.38Q11.84 13.36 11.84 13.30L11.84 13.30Q11.84 13.16 12.01 13.12L12.01 13.12Q12.42 13.01 12.54 12.76Q12.66 12.52 12.66 12.04L12.66 12.04L12.71 7.27L12.71 6.58Q12.71 4.47 12.60 4.13L12.60 4.13Q12.50 3.84 12.12 3.84L12.12 3.84Q12.00 3.84 11.94 3.84L11.94 3.84L11.89 3.82Q11.65 3.82 11.65 3.68ZM20.02 8.01L20.02 8.01Q20.02 7.88 20.19 7.82Q20.36 7.76 20.69 7.69Q21.03 7.62 21.25 7.52L21.25 7.52Q21.34 7.49 21.43 7.43Q21.53 7.38 21.58 7.36Q21.63 7.34 21.71 7.32Q21.78 7.31 21.87 7.31L21.87 7.31Q22.04 7.31 22.04 7.71L22.04 7.71Q22.04 7.81 22.00 8.04Q21.97 8.26 21.97 8.30L21.97 8.30Q21.97 8.47 22.05 8.47L22.05 8.47Q22.06 8.47 22.14 8.36Q22.22 8.26 22.35 8.11Q22.48 7.97 22.68 7.82Q22.88 7.67 23.20 7.57Q23.53 7.46 23.94 7.46L23.94 7.46Q24.46 7.46 24.84 7.64Q25.21 7.81 25.36 8.02Q25.51 8.22 25.61 8.39Q25.70 8.57 25.73 8.57L25.73 8.57Q25.75 8.57 25.99 8.28Q26.24 7.99 26.69 7.71Q27.15 7.42 27.65 7.42L27.65 7.42Q28.67 7.42 29.22 8.02Q29.78 8.62 29.88 9.52L29.88 9.52Q29.96 10.35 29.96 11.30L29.96 11.30L29.96 11.75Q29.96 12.38 30.03 12.66Q30.10 12.94 30.35 13.02L30.35 13.02Q30.37 13.02 30.48 13.04Q30.59 13.06 30.67 13.08Q30.74 13.09 30.81 13.15Q30.88 13.20 30.88 13.29L30.88 13.29Q30.88 13.50 30.42 13.50L30.42 13.50Q30.34 13.50 29.99 13.47Q29.65 13.44 29.50 13.44L29.50 13.44Q29.29 13.44 28.96 13.47Q28.63 13.50 28.49 13.50L28.49 13.50Q28.15 13.50 28.15 13.36L28.15 13.36Q28.15 13.20 28.45 13.09Q28.74 12.98 28.80 12.85L28.80 12.85Q28.85 12.70 28.85 12.21L28.85 12.21L28.85 11.98Q28.85 11.51 28.85 11.15Q28.84 10.79 28.84 10.49Q28.84 10.19 28.82 9.97Q28.80 9.74 28.80 9.58Q28.80 9.42 28.76 9.29Q28.71 9.16 28.71 9.09Q28.70 9.02 28.63 8.92Q28.56 8.82 28.55 8.79Q28.53 8.76 28.44 8.65Q28.35 8.54 28.32 8.51L28.32 8.51Q27.96 8.08 27.27 8.08L27.27 8.08Q26.95 8.08 26.60 8.25Q26.25 8.41 26.04 8.59Q25.83 8.76 25.83 8.83L25.83 8.83Q25.83 8.88 25.85 9.03Q25.87 9.18 25.89 9.58Q25.91 9.98 25.91 10.61L25.91 10.61L25.91 11.80Q25.91 12.45 26.10 12.75Q26.28 13.05 26.88 13.13L26.88 13.13Q27.02 13.15 27.08 13.22Q27.13 13.30 27.13 13.36L27.13 13.36Q27.13 13.51 26.87 13.51L26.87 13.51Q26.77 13.51 26.42 13.47Q26.07 13.44 25.84 13.44L25.84 13.44Q25.70 13.44 25.16 13.47Q24.61 13.51 24.57 13.51L24.57 13.51Q24.26 13.51 24.26 13.33L24.26 13.33Q24.26 13.23 24.32 13.18Q24.37 13.13 24.58 13.05L24.58 13.05Q24.67 13.02 24.72 12.99Q24.77 12.96 24.84 12.75Q24.91 12.54 24.91 12.18L24.91 12.18Q24.91 12.12 24.91 12.07Q24.91 12.01 24.91 11.92Q24.92 11.83 24.92 11.50Q24.92 11.17 24.92 10.65L24.92 10.65Q24.92 10.35 24.91 10.16Q24.91 9.97 24.91 9.91Q24.91 9.86 24.90 9.82Q24.89 9.79 24.89 9.77L24.89 9.77Q24.89 9.03 24.51 8.58Q24.14 8.13 23.46 8.13L23.46 8.13Q22.88 8.13 22.41 8.44Q21.95 8.75 21.95 9.16L21.95 9.16L21.95 9.35L21.95 11.98Q21.95 12.49 22.13 12.75Q22.32 13.02 22.54 13.05Q22.76 13.09 22.95 13.13Q23.13 13.17 23.13 13.27L23.13 13.27Q23.13 13.40 23.09 13.44Q23.04 13.48 22.83 13.48L22.83 13.48Q22.78 13.48 22.39 13.46Q22.01 13.44 21.66 13.44L21.66 13.44Q21.34 13.44 20.97 13.46Q20.61 13.48 20.55 13.48L20.55 13.48Q20.22 13.48 20.22 13.27L20.22 13.27Q20.22 13.17 20.29 13.13Q20.37 13.09 20.47 13.08Q20.57 13.06 20.68 12.96Q20.79 12.85 20.86 12.66L20.86 12.66Q20.97 12.26 20.97 10.53L20.97 10.53Q20.97 10.26 20.96 9.69Q20.96 9.11 20.96 8.82L20.96 8.82Q20.96 8.48 20.81 8.34Q20.66 8.20 20.49 8.21Q20.31 8.22 20.17 8.18Q20.02 8.15 20.02 8.01ZM31.57 10.72L31.57 10.72Q31.57 9.32 32.36 8.36Q33.15 7.39 34.41 7.39L34.41 7.39Q35 7.39 35.48 7.60Q35.97 7.81 36.23 8.11Q36.50 8.41 36.68 8.75Q36.86 9.09 36.92 9.30Q36.99 9.52 36.99 9.62L36.99 9.62Q36.99 9.87 36.41 9.87L36.41 9.87L33.24 9.87L32.82 9.87Q32.70 9.87 32.68 9.89Q32.66 9.91 32.66 10.02L32.66 10.02Q32.66 11.34 33.37 12.10Q34.08 12.85 35.03 12.85L35.03 12.85Q35.62 12.85 36.22 12.54Q36.83 12.22 36.86 12.22L36.86 12.22Q37.00 12.22 37.00 12.35L37.00 12.35Q37.00 12.40 36.90 12.55Q36.81 12.70 36.60 12.89Q36.39 13.09 36.11 13.27Q35.83 13.45 35.41 13.58Q34.99 13.71 34.52 13.71L34.52 13.71Q33.29 13.71 32.43 12.95Q31.57 12.19 31.57 10.72ZM32.75 9.34L32.75 9.34Q32.75 9.53 32.93 9.53L32.93 9.53Q33.31 9.53 34.31 9.49Q35.32 9.45 35.39 9.45L35.39 9.45Q35.59 9.45 35.64 9.41Q35.69 9.38 35.69 9.28L35.69 9.28Q35.69 8.86 35.29 8.30Q34.90 7.74 34.17 7.74L34.17 7.74Q33.50 7.74 33.12 8.29Q32.75 8.85 32.75 9.34ZM37.86 8.06L37.86 8.06Q37.86 7.98 37.90 7.92Q37.95 7.85 38.04 7.80Q38.12 7.74 38.28 7.61Q38.44 7.48 38.60 7.31L38.60 7.31Q38.81 7.08 39.04 6.77Q39.27 6.45 39.40 6.31Q39.54 6.16 39.66 6.16L39.66 6.16Q39.82 6.16 39.82 6.48L39.82 6.48Q39.82 6.61 39.79 6.87Q39.76 7.14 39.76 7.28L39.76 7.28Q39.76 7.48 39.84 7.52Q39.91 7.56 40.33 7.56L40.33 7.56L40.82 7.56Q41.13 7.56 41.35 7.53Q41.57 7.50 41.65 7.46Q41.73 7.42 41.80 7.39Q41.86 7.36 41.90 7.36L41.90 7.36Q42.04 7.36 42.04 7.52L42.04 7.52Q42.04 7.63 41.86 7.96Q41.68 8.29 41.59 8.29L41.59 8.29Q41.38 8.29 41.19 8.28Q40.99 8.27 40.85 8.27Q40.71 8.26 40.59 8.25Q40.46 8.23 40.38 8.22Q40.29 8.22 40.23 8.21Q40.17 8.20 40.14 8.20L40.14 8.20L40.11 8.19Q39.84 8.19 39.77 8.27Q39.69 8.36 39.69 8.65L39.69 8.65Q39.69 8.81 39.66 9.82Q39.63 10.84 39.63 11.26L39.63 11.26Q39.63 12.17 39.86 12.52Q40.10 12.88 40.84 12.88L40.84 12.88Q41.13 12.88 41.49 12.75Q41.85 12.61 41.87 12.61L41.87 12.61Q42.01 12.61 42.01 12.78L42.01 12.78Q42.01 12.98 41.53 13.28Q41.05 13.58 40.49 13.58L40.49 13.58Q38.60 13.58 38.60 11.94L38.60 11.94L38.60 11.73Q38.60 11.19 38.61 10.40Q38.63 9.62 38.64 9.05Q38.65 8.48 38.65 8.47L38.65 8.47Q38.65 8.33 38.60 8.29Q38.54 8.25 38.36 8.25L38.36 8.25Q38.30 8.25 38.21 8.25Q38.12 8.26 38.09 8.26L38.09 8.26Q37.86 8.26 37.86 8.06ZM45.53 3.81L45.53 3.81Q45.53 3.65 45.69 3.61Q45.85 3.57 46.40 3.57L46.40 3.57Q46.48 3.57 46.78 3.58Q47.08 3.60 47.21 3.60L47.21 3.60Q47.36 3.60 47.77 3.59Q48.19 3.58 48.40 3.58L48.40 3.58Q49.10 3.58 49.10 3.75L49.10 3.75Q49.10 3.91 48.80 4.01Q48.51 4.12 48.51 4.24L48.51 4.24Q48.51 4.38 48.60 4.61Q48.69 4.83 48.78 4.97Q48.87 5.11 49.06 5.38Q49.24 5.64 49.27 5.70L49.27 5.70Q49.74 6.45 50.25 7.14Q50.76 7.83 50.83 7.83L50.83 7.83Q50.92 7.83 51.04 7.66Q51.17 7.50 51.39 7.13Q51.62 6.75 51.77 6.52L51.77 6.52Q51.81 6.45 51.97 6.22Q52.14 5.98 52.20 5.88Q52.26 5.78 52.39 5.58Q52.51 5.38 52.57 5.27Q52.63 5.17 52.70 5.02Q52.78 4.87 52.81 4.77Q52.84 4.68 52.84 4.59L52.84 4.59Q52.84 4.14 52.36 4.03L52.36 4.03Q52.30 4.02 52.20 4.00Q52.09 3.99 52.04 3.98Q52.00 3.96 51.93 3.93Q51.86 3.91 51.83 3.86Q51.80 3.81 51.80 3.74L51.80 3.74Q51.80 3.57 52.19 3.57L52.19 3.57Q52.26 3.57 52.45 3.58Q52.64 3.58 52.77 3.58L52.77 3.58Q53.09 3.58 53.54 3.59Q54.00 3.60 54.25 3.60L54.25 3.60Q54.94 3.60 54.94 3.81L54.94 3.81Q54.94 3.86 54.85 3.91Q54.77 3.95 54.61 4.02Q54.46 4.09 54.33 4.19L54.33 4.19Q53.76 4.63 52.65 6.31Q51.53 7.99 51.38 8.19L51.38 8.19Q51.16 8.47 51.10 8.81Q51.04 9.14 51.04 9.95L51.04 9.95Q51.04 10.14 51.05 10.73Q51.06 11.33 51.06 11.58L51.06 11.58L51.06 11.91Q51.06 12.38 51.22 12.64Q51.38 12.91 51.52 12.96Q51.66 13.01 51.80 13.01L51.80 13.01Q51.83 13.01 51.94 13.01Q52.05 13.02 52.08 13.02L52.08 13.02Q52.18 13.02 52.23 13.08Q52.29 13.15 52.29 13.22L52.29 13.22Q52.29 13.36 52.22 13.40Q52.15 13.44 51.95 13.44L51.95 13.44Q51.88 13.44 51.34 13.43Q50.81 13.43 50.55 13.43L50.55 13.43Q50.06 13.43 49.66 13.45Q49.25 13.48 49.01 13.48L49.01 13.48Q48.62 13.48 48.62 13.33L48.62 13.33Q48.62 13.20 48.70 13.15Q48.78 13.10 48.96 13.09Q49.14 13.08 49.22 13.05L49.22 13.05Q49.81 12.87 49.81 12.19L49.81 12.19Q49.81 12.11 49.82 11.92Q49.83 11.73 49.83 11.12Q49.84 10.50 49.84 9.35L49.84 9.35Q49.84 9.13 49.80 8.97Q49.77 8.81 49.72 8.65Q49.67 8.50 49.48 8.20Q49.29 7.91 49.11 7.64Q48.93 7.36 48.49 6.72Q48.05 6.08 47.64 5.46L47.64 5.46Q47.21 4.80 46.86 4.46Q46.51 4.12 46.32 4.05Q46.13 3.99 45.88 3.99L45.88 3.99Q45.53 3.99 45.53 3.81ZM54.94 12.25L54.94 12.25Q54.94 11.75 55.15 11.40Q55.36 11.06 55.78 10.87Q56.21 10.68 56.67 10.57Q57.13 10.46 57.79 10.35L57.79 10.35Q57.88 10.33 57.92 10.32Q57.96 10.32 58.03 10.31Q58.10 10.30 58.16 10.29L58.16 10.29Q58.25 10.28 58.29 10.26Q58.32 10.25 58.36 10.20Q58.39 10.15 58.39 10.07L58.39 10.07Q58.39 9.93 58.41 9.68Q58.42 9.44 58.42 9.34L58.42 9.34Q58.42 8.54 57.96 8.18Q57.50 7.83 57.06 7.83L57.06 7.83Q56.06 7.83 56.06 8.67L56.06 8.67Q56.06 8.78 56.08 8.95Q56.11 9.11 56.11 9.17L56.11 9.17Q56.11 9.45 55.86 9.45L55.86 9.45Q55.78 9.45 55.65 9.43Q55.52 9.41 55.36 9.36Q55.20 9.31 55.10 9.19Q54.99 9.07 54.99 8.90L54.99 8.90Q54.99 8.36 55.73 7.86Q56.46 7.36 57.34 7.36L57.34 7.36Q57.95 7.36 58.37 7.50Q58.79 7.64 58.99 7.82Q59.19 7.99 59.30 8.28Q59.42 8.57 59.43 8.73Q59.44 8.89 59.44 9.13L59.44 9.13Q59.44 10.14 59.41 10.72Q59.37 11.30 59.37 11.73L59.37 11.73Q59.37 12.25 59.49 12.55Q59.60 12.85 59.75 12.94Q59.91 13.02 60.06 13.03Q60.21 13.05 60.33 13.09Q60.44 13.13 60.44 13.26L60.44 13.26Q60.44 13.55 59.56 13.55L59.56 13.55Q59.19 13.55 58.93 13.36Q58.67 13.16 58.56 12.97Q58.45 12.78 58.44 12.78Q58.42 12.78 58.32 12.87Q58.23 12.96 58.05 13.09Q57.88 13.22 57.66 13.34Q57.44 13.47 57.15 13.56Q56.87 13.65 56.59 13.65L56.59 13.65Q55.69 13.65 55.29 13.23L55.29 13.23Q54.94 12.88 54.94 12.25ZM56.03 12.04L56.03 12.04Q56.03 12.52 56.31 12.80Q56.59 13.09 57.11 13.09L57.11 13.09Q57.47 13.09 57.73 12.98Q57.99 12.87 58.11 12.73Q58.24 12.59 58.31 12.36Q58.38 12.12 58.39 12.00Q58.39 11.87 58.39 11.66L58.39 11.66L58.39 10.65Q58.39 10.53 58.30 10.53L58.30 10.53Q58.27 10.53 58.23 10.54Q58.18 10.56 58.16 10.56L58.16 10.56Q57.83 10.61 57.75 10.63Q57.67 10.64 57.36 10.71Q57.05 10.78 56.93 10.84Q56.81 10.89 56.59 11.01Q56.38 11.13 56.29 11.26Q56.20 11.40 56.11 11.60Q56.03 11.80 56.03 12.04ZM62.87 14.55L62.87 14.55Q62.87 14.50 63.15 14.29L63.15 14.29Q63.18 14.28 63.27 14.20Q63.35 14.13 63.42 14.09Q63.49 14.06 63.57 14.06L63.57 14.06Q63.64 14.06 63.80 14.13Q63.95 14.21 64.13 14.42Q64.30 14.63 64.30 14.91L64.30 14.91Q64.30 15.51 63.85 15.88Q63.41 16.25 63.14 16.25L63.14 16.25Q63.01 16.25 63.01 16.16L63.01 16.16Q63.01 16.11 63.16 16.04Q63.31 15.96 63.45 15.80Q63.60 15.64 63.60 15.39L63.60 15.39Q63.60 15.12 63.42 14.97Q63.24 14.83 63.06 14.74Q62.87 14.66 62.87 14.55ZM61.49 12.84L61.49 12.84L61.49 11.62Q61.49 11.47 61.55 11.36Q61.61 11.26 61.70 11.26L61.70 11.26Q61.84 11.26 61.89 11.32Q61.94 11.38 61.98 11.58Q62.02 11.77 62.06 11.86L62.06 11.86Q62.58 13.15 63.52 13.15L63.52 13.15Q63.95 13.15 64.34 12.91Q64.74 12.68 64.74 12.15L64.74 12.15Q64.74 11.69 64.41 11.38Q64.09 11.07 63.63 10.90Q63.17 10.72 62.71 10.54Q62.24 10.35 61.92 9.97Q61.60 9.60 61.60 9.04L61.60 9.04Q61.60 8.26 62.23 7.78Q62.86 7.31 63.71 7.31L63.71 7.31Q64.37 7.31 64.76 7.43Q65.16 7.55 65.23 7.64Q65.31 7.74 65.31 7.83L65.31 7.83Q65.31 7.84 65.34 8.20Q65.37 8.57 65.37 8.67L65.37 8.67Q65.37 8.90 65.31 8.99Q65.25 9.07 65.11 9.07L65.11 9.07Q65.04 9.07 64.92 8.87Q64.81 8.67 64.66 8.43Q64.51 8.19 64.18 7.99Q63.85 7.78 63.42 7.78L63.42 7.78Q63.01 7.78 62.75 7.99Q62.48 8.19 62.48 8.50L62.48 8.50Q62.48 8.67 62.52 8.81Q62.57 8.96 62.67 9.07Q62.78 9.18 62.85 9.26Q62.93 9.34 63.11 9.42Q63.29 9.51 63.38 9.54Q63.48 9.58 63.69 9.65Q63.91 9.73 63.98 9.76L63.98 9.76Q64.99 10.14 65.34 10.55Q65.69 10.96 65.69 11.77L65.69 11.77Q65.69 12.56 64.95 13.23L64.95 13.23Q64.44 13.66 63.56 13.66L63.56 13.66Q63.31 13.66 63.03 13.61Q62.75 13.55 62.59 13.50Q62.43 13.45 62.22 13.37Q62.01 13.29 61.99 13.29L61.99 13.29Q61.94 13.27 61.86 13.24Q61.78 13.22 61.75 13.21Q61.71 13.20 61.66 13.17Q61.60 13.15 61.58 13.13Q61.56 13.10 61.53 13.06Q61.50 13.02 61.49 12.96Q61.49 12.91 61.49 12.84ZM66.89 12.25L66.89 12.25Q66.89 11.75 67.10 11.40Q67.31 11.06 67.74 10.87Q68.17 10.68 68.63 10.57Q69.09 10.46 69.75 10.35L69.75 10.35Q69.83 10.33 69.87 10.32Q69.92 10.32 69.99 10.31Q70.06 10.30 70.11 10.29L70.11 10.29Q70.21 10.28 70.25 10.26Q70.28 10.25 70.31 10.20Q70.35 10.15 70.35 10.07L70.35 10.07Q70.35 9.93 70.36 9.68Q70.38 9.44 70.38 9.34L70.38 9.34Q70.38 8.54 69.92 8.18Q69.45 7.83 69.02 7.83L69.02 7.83Q68.01 7.83 68.01 8.67L68.01 8.67Q68.01 8.78 68.04 8.95Q68.07 9.11 68.07 9.17L68.07 9.17Q68.07 9.45 67.82 9.45L67.82 9.45Q67.73 9.45 67.61 9.43Q67.48 9.41 67.32 9.36Q67.16 9.31 67.05 9.19Q66.95 9.07 66.95 8.90L66.95 8.90Q66.95 8.36 67.68 7.86Q68.42 7.36 69.30 7.36L69.30 7.36Q69.90 7.36 70.32 7.50Q70.74 7.64 70.94 7.82Q71.15 7.99 71.26 8.28Q71.37 8.57 71.39 8.73Q71.40 8.89 71.40 9.13L71.40 9.13Q71.40 10.14 71.36 10.72Q71.33 11.30 71.33 11.73L71.33 11.73Q71.33 12.25 71.44 12.55Q71.55 12.85 71.71 12.94Q71.86 13.02 72.02 13.03Q72.17 13.05 72.28 13.09Q72.39 13.13 72.39 13.26L72.39 13.26Q72.39 13.55 71.51 13.55L71.51 13.55Q71.15 13.55 70.89 13.36Q70.63 13.16 70.52 12.97Q70.41 12.78 70.39 12.78Q70.38 12.78 70.28 12.87Q70.18 12.96 70.01 13.09Q69.83 13.22 69.61 13.34Q69.40 13.47 69.11 13.56Q68.82 13.65 68.54 13.65L68.54 13.65Q67.65 13.65 67.24 13.23L67.24 13.23Q66.89 12.88 66.89 12.25ZM67.98 12.04L67.98 12.04Q67.98 12.52 68.26 12.80Q68.54 13.09 69.06 13.09L69.06 13.09Q69.43 13.09 69.69 12.98Q69.94 12.87 70.07 12.73Q70.20 12.59 70.27 12.36Q70.34 12.12 70.34 12.00Q70.35 11.87 70.35 11.66L70.35 11.66L70.35 10.65Q70.35 10.53 70.25 10.53L70.25 10.53Q70.22 10.53 70.18 10.54Q70.14 10.56 70.11 10.56L70.11 10.56Q69.79 10.61 69.71 10.63Q69.62 10.64 69.31 10.71Q69.01 10.78 68.89 10.84Q68.77 10.89 68.55 11.01Q68.33 11.13 68.24 11.26Q68.15 11.40 68.07 11.60Q67.98 11.80 67.98 12.04ZM72.79 8.12L72.79 8.12Q72.79 7.97 72.97 7.89Q73.16 7.81 73.67 7.65Q74.19 7.49 74.63 7.28L74.63 7.28Q74.77 7.22 74.83 7.22L74.83 7.22Q75.01 7.22 75.01 7.50L75.01 7.50Q75.01 7.56 75.00 7.69Q75.00 7.81 75.00 7.88L75.00 7.88Q75.00 8.18 75.01 8.30Q75.03 8.43 75.05 8.46Q75.07 8.48 75.11 8.48L75.11 8.48Q75.14 8.48 75.32 8.20Q75.50 7.92 75.84 7.64Q76.17 7.35 76.58 7.35L76.58 7.35Q76.83 7.35 77.24 7.62L77.24 7.62Q77.53 7.81 77.53 8.02L77.53 8.02Q77.53 8.27 77.42 8.47Q77.31 8.67 77.20 8.74Q77.10 8.81 77.06 8.81L77.06 8.81Q76.94 8.81 76.66 8.64Q76.37 8.47 75.99 8.47Q75.61 8.47 75.28 8.78Q74.96 9.09 74.96 9.34L74.96 9.34L74.96 10.79Q74.96 11.30 74.96 11.61Q74.97 11.93 74.97 12.00Q74.97 12.08 74.98 12.14Q74.98 12.19 74.98 12.26L74.98 12.26Q74.98 12.56 75.18 12.77Q75.38 12.98 75.64 13.02L75.64 13.02Q75.73 13.03 75.85 13.05Q75.98 13.06 76.05 13.07Q76.12 13.08 76.20 13.10Q76.29 13.12 76.32 13.16Q76.36 13.20 76.36 13.26L76.36 13.26Q76.36 13.48 76.19 13.48L76.19 13.48Q75.95 13.48 75.54 13.45Q75.14 13.41 75.00 13.41L75.00 13.41Q74.55 13.41 74.07 13.45Q73.60 13.48 73.54 13.48L73.54 13.48Q73.40 13.48 73.33 13.45Q73.26 13.43 73.25 13.40Q73.23 13.37 73.23 13.31L73.23 13.31Q73.23 13.13 73.42 13.08L73.42 13.08Q73.78 12.99 73.86 12.72Q73.93 12.45 73.93 11.55L73.93 11.55Q73.93 10.64 73.93 10.05Q73.92 9.46 73.92 9.30Q73.92 9.14 73.91 9.04Q73.91 8.95 73.91 8.88L73.91 8.88Q73.91 8.72 73.86 8.62Q73.82 8.53 73.66 8.44Q73.50 8.36 73.21 8.36L73.21 8.36Q73.19 8.36 73.14 8.35Q73.08 8.34 73.05 8.34L73.05 8.34Q72.79 8.34 72.79 8.12ZM85.16 1.94Q84.94 1.67 84.94 1.47Q84.94 1.27 85.16 1.01Q85.37 0.76 85.60 0.76L85.60 0.76Q85.83 0.76 86.05 1.00Q86.27 1.25 86.27 1.47Q86.27 1.69 86.02 1.95Q85.78 2.21 85.67 2.21L85.67 2.21Q85.39 2.21 85.16 1.94ZM87.39 1.94Q87.18 1.67 87.18 1.47Q87.18 1.27 87.39 1.01Q87.61 0.76 87.84 0.76L87.84 0.76Q88.07 0.76 88.29 1.00Q88.51 1.25 88.51 1.47Q88.51 1.69 88.26 1.95Q88.02 2.21 87.89 2.21L87.89 2.21Q87.61 2.21 87.39 1.94ZM81.33 8.69L81.33 8.69Q81.33 6.34 82.74 4.84Q84.15 3.33 86.74 3.33L86.74 3.33Q87.95 3.33 88.91 3.68Q89.88 4.03 90.44 4.54Q91 5.05 91.38 5.71Q91.76 6.37 91.90 6.92Q92.04 7.48 92.04 7.95L92.04 7.95Q92.04 9.86 91.29 11.16Q90.55 12.47 89.34 13.07Q88.13 13.66 86.55 13.66L86.55 13.66Q84.88 13.66 83.67 12.94Q82.46 12.21 81.89 11.10Q81.33 10.00 81.33 8.69ZM82.56 7.98L82.56 7.98Q82.56 8.54 82.71 9.19Q82.87 9.84 83.22 10.54Q83.57 11.23 84.06 11.78Q84.56 12.33 85.32 12.69Q86.09 13.05 87.00 13.05L87.00 13.05Q87.47 13.05 88.00 12.90Q88.52 12.75 89.04 12.45Q89.56 12.14 89.96 11.70Q90.37 11.26 90.63 10.62Q90.89 9.98 90.89 9.24L90.89 9.24Q90.89 6.71 89.56 5.30Q88.23 3.89 86.27 3.89L86.27 3.89Q84.73 3.89 83.64 4.93Q82.56 5.96 82.56 7.98ZM93.21 13.23L93.21 13.23Q93.21 13.16 93.22 13.11Q93.23 13.06 93.24 13.03Q93.25 12.99 93.30 12.92Q93.34 12.85 93.38 12.80Q93.42 12.74 93.51 12.61Q93.60 12.47 93.69 12.36L93.69 12.36Q96.25 8.67 96.25 8.46L96.25 8.46Q96.25 8.39 95.93 8.39L95.93 8.39Q95.76 8.39 95.07 8.43Q94.37 8.48 94.22 8.48L94.22 8.48Q93.97 8.50 93.79 8.69Q93.62 8.89 93.52 9.09Q93.42 9.28 93.35 9.28L93.35 9.28Q93.24 9.28 93.24 9.13L93.24 9.13Q93.24 8.88 93.27 8.61Q93.31 8.34 93.37 8.06Q93.42 7.77 93.42 7.73L93.42 7.73Q93.45 7.48 93.70 7.48L93.70 7.48Q93.74 7.48 93.94 7.49Q94.14 7.50 94.47 7.51Q94.81 7.52 95.20 7.52L95.20 7.52Q95.63 7.52 96.31 7.50Q96.98 7.48 97.26 7.48L97.26 7.48Q97.43 7.48 97.43 7.62L97.43 7.62Q97.43 7.71 97.35 7.83Q97.27 7.95 97.16 8.08Q97.05 8.22 97.02 8.26L97.02 8.26Q96.43 9.17 95.70 10.21Q94.96 11.26 94.63 11.75Q94.30 12.25 94.30 12.42L94.30 12.42Q94.30 12.54 94.99 12.54L94.99 12.54Q95.14 12.54 95.38 12.54Q95.62 12.53 95.68 12.53L95.68 12.53Q96.04 12.53 96.29 12.48Q96.54 12.43 96.68 12.33Q96.81 12.22 96.87 12.14Q96.92 12.07 96.98 11.90Q97.05 11.73 97.08 11.68L97.08 11.68Q97.17 11.48 97.31 11.48L97.31 11.48Q97.54 11.48 97.54 11.68L97.54 11.68Q97.54 11.76 97.20 12.53L97.20 12.53Q97.16 12.63 97.11 12.81Q97.06 12.99 97.03 13.11Q96.99 13.23 96.93 13.32Q96.87 13.41 96.77 13.41L96.77 13.41L95.17 13.41Q95.09 13.41 94.73 13.42Q94.37 13.43 94.15 13.43L94.15 13.43L93.91 13.43Q93.67 13.43 93.58 13.44L93.58 13.44L93.48 13.44Q93.21 13.44 93.21 13.23ZM98.49 10.72L98.49 10.72Q98.49 9.32 99.28 8.36Q100.07 7.39 101.33 7.39L101.33 7.39Q101.92 7.39 102.40 7.60Q102.89 7.81 103.15 8.11Q103.42 8.41 103.60 8.75Q103.78 9.09 103.84 9.30Q103.91 9.52 103.91 9.62L103.91 9.62Q103.91 9.87 103.33 9.87L103.33 9.87L100.16 9.87L99.74 9.87Q99.62 9.87 99.60 9.89Q99.58 9.91 99.58 10.02L99.58 10.02Q99.58 11.34 100.29 12.10Q101.00 12.85 101.95 12.85L101.95 12.85Q102.54 12.85 103.14 12.54Q103.75 12.22 103.78 12.22L103.78 12.22Q103.92 12.22 103.92 12.35L103.92 12.35Q103.92 12.40 103.82 12.55Q103.73 12.70 103.52 12.89Q103.31 13.09 103.03 13.27Q102.75 13.45 102.33 13.58Q101.91 13.71 101.44 13.71L101.44 13.71Q100.21 13.71 99.35 12.95Q98.49 12.19 98.49 10.72ZM99.67 9.34L99.67 9.34Q99.67 9.53 99.85 9.53L99.85 9.53Q100.23 9.53 101.23 9.49Q102.24 9.45 102.31 9.45L102.31 9.45Q102.51 9.45 102.56 9.41Q102.61 9.38 102.61 9.28L102.61 9.28Q102.61 8.86 102.21 8.30Q101.82 7.74 101.09 7.74L101.09 7.74Q100.42 7.74 100.04 8.29Q99.67 8.85 99.67 9.34ZM104.78 8.12L104.78 8.12Q104.78 7.97 104.96 7.89Q105.15 7.81 105.66 7.65Q106.18 7.49 106.62 7.28L106.62 7.28Q106.76 7.22 106.82 7.22L106.82 7.22Q107.00 7.22 107.00 7.50L107.00 7.50Q107.00 7.56 106.99 7.69Q106.99 7.81 106.99 7.88L106.99 7.88Q106.99 8.18 107.00 8.30Q107.02 8.43 107.04 8.46Q107.06 8.48 107.10 8.48L107.10 8.48Q107.13 8.48 107.31 8.20Q107.49 7.92 107.83 7.64Q108.16 7.35 108.57 7.35L108.57 7.35Q108.82 7.35 109.23 7.62L109.23 7.62Q109.52 7.81 109.52 8.02L109.52 8.02Q109.52 8.27 109.41 8.47Q109.30 8.67 109.19 8.74Q109.09 8.81 109.05 8.81L109.05 8.81Q108.93 8.81 108.65 8.64Q108.36 8.47 107.98 8.47Q107.60 8.47 107.27 8.78Q106.95 9.09 106.95 9.34L106.95 9.34L106.95 10.79Q106.95 11.30 106.95 11.61Q106.96 11.93 106.96 12.00Q106.96 12.08 106.97 12.14Q106.97 12.19 106.97 12.26L106.97 12.26Q106.97 12.56 107.17 12.77Q107.37 12.98 107.63 13.02L107.63 13.02Q107.72 13.03 107.84 13.05Q107.97 13.06 108.04 13.07Q108.11 13.08 108.19 13.10Q108.28 13.12 108.31 13.16Q108.35 13.20 108.35 13.26L108.35 13.26Q108.35 13.48 108.18 13.48L108.18 13.48Q107.94 13.48 107.53 13.45Q107.13 13.41 106.99 13.41L106.99 13.41Q106.54 13.41 106.06 13.45Q105.59 13.48 105.53 13.48L105.53 13.48Q105.39 13.48 105.32 13.45Q105.25 13.43 105.24 13.40Q105.22 13.37 105.22 13.31L105.22 13.31Q105.22 13.13 105.41 13.08L105.41 13.08Q105.77 12.99 105.85 12.72Q105.92 12.45 105.92 11.55L105.92 11.55Q105.92 10.64 105.92 10.05Q105.91 9.46 105.91 9.30Q105.91 9.14 105.90 9.04Q105.90 8.95 105.90 8.88L105.90 8.88Q105.90 8.72 105.85 8.62Q105.81 8.53 105.65 8.44Q105.49 8.36 105.20 8.36L105.20 8.36Q105.18 8.36 105.13 8.35Q105.07 8.34 105.04 8.34L105.04 8.34Q104.78 8.34 104.78 8.12Z"></path></g><defs data-v-fde0c5aa=""><linearGradient data-v-fde0c5aa="" gradientTransform="rotate(25)" id="1b8c7657-7aef-4cda-9bbb-82fcdf4595fc" x1="0%" y1="0%" x2="100%" y2="0%"><stop data-v-fde0c5aa="" offset="0%" stop-color="#51A4FB" stop-opacity="1"></stop><stop data-v-fde0c5aa="" offset="100%" stop-color="#51A4FB" stop-opacity="1"></stop></linearGradient></defs><g data-v-fde0c5aa="" id="e2a43cc8-cacc-47d8-a34a-d319960f94b9" stroke="none" fill="url(#1b8c7657-7aef-4cda-9bbb-82fcdf4595fc)" transform="matrix(0.6837382575255045,0,0,0.6837382575255045,37.718365507668516,115.81274283413589)"><path d="M38.285 71.356l-20.036-.004a4.054 4.054 0 01-.179.004c-2.556 0-5.133-1.786-5.133-5.772V27.799c0-3.988 2.577-5.773 5.133-5.773.072 0 .133.002.179.004l20.038-.004 43.463.004c.045-.002.105-.004.179-.004 2.554 0 5.132 1.785 5.132 5.773l-.001 37.785c0 3.986-2.578 5.772-5.133 5.772-.073 0-.134-.002-.179-.004l-43.463.004zm43.589-3.678l.074.006c.973-.002 1.437-.669 1.437-2.1l.001-37.785c0-1.432-.463-2.099-1.457-2.099l-.112.015-.014-.01L27.94 25.7l-9.818.005-.073-.007c-.974.002-1.437.669-1.437 2.101v37.785c0 1.431.463 2.098 1.458 2.098l.111-.015.016.011 20.088.004 43.589-.004zM96.662 74.3H3.337v3.675h93.325V74.3zM57.538 52.297l-6.015-6.256 2.579-2.684-10.312-3.574 3.437 10.725 2.578-2.682 6.016 6.259 1.717-1.788z"></path></g><defs data-v-fde0c5aa=""><!----></defs><g data-v-fde0c5aa="" id="9b32194b-218c-448f-9f53-1ad88d367586" fill="#000000" transform="matrix(0.5102815861473101,0,0,0.5102815861473101,116.81497882969572,159.08043650589033)"><path d="M4.93 7.81L8.81 2.21L7.53 2.21L4.40 6.72L1.26 2.21L-0.01 2.21L3.88 7.81L3.88 11.48L4.93 11.48ZM20.55 2.10C17.74 2.10 15.85 4.21 15.85 6.85C15.85 9.48 17.74 11.59 20.55 11.59C23.37 11.59 25.26 9.48 25.26 6.85C25.26 4.21 23.37 2.10 20.55 2.10ZM20.55 10.57C18.30 10.57 16.90 8.93 16.90 6.85C16.90 4.76 18.30 3.12 20.55 3.12C22.81 3.12 24.21 4.76 24.21 6.85C24.21 8.93 22.81 10.57 20.55 10.57ZM40.66 2.21L40.66 7.52C40.66 9.67 39.23 10.57 37.76 10.57C36.29 10.57 34.87 9.67 34.87 7.52L34.87 2.21L33.82 2.21L33.82 7.49C33.82 9.95 35.45 11.59 37.76 11.59C40.08 11.59 41.71 9.94 41.71 7.49L41.71 2.21ZM51.91 7.92L55.13 7.92L57.37 11.48L58.62 11.48L56.18 7.74C57.22 7.50 58.42 6.90 58.42 5.11C58.42 3.35 57.20 2.21 55.30 2.21L50.86 2.21L50.86 11.48L51.91 11.48ZM51.91 3.21L55.17 3.21C56.49 3.21 57.37 3.93 57.37 5.11C57.37 6.55 56.11 6.93 55.12 6.93L51.91 6.93ZM77.83 4.65C77.83 4.03 78.19 3.08 80.29 3.08C81.98 3.08 82.77 3.82 82.88 4.75L83.96 4.75C83.87 3.36 82.75 2.10 80.29 2.10C77.97 2.10 76.80 3.15 76.80 4.66C76.80 7.84 83.15 6.69 83.15 8.96C83.15 10.05 82.17 10.60 80.60 10.60C78.99 10.60 77.69 10.05 77.62 8.71L76.52 8.71C76.66 10.37 77.78 11.59 80.53 11.59C82.81 11.59 84.20 10.64 84.20 8.92C84.20 5.68 77.83 6.80 77.83 4.65ZM96.43 7.81L100.31 2.21L99.04 2.21L95.90 6.72L92.76 2.21L91.49 2.21L95.38 7.81L95.38 11.48L96.43 11.48ZM108.91 4.65C108.91 4.03 109.27 3.08 111.37 3.08C113.06 3.08 113.85 3.82 113.96 4.75L115.04 4.75C114.95 3.36 113.83 2.10 111.37 2.10C109.05 2.10 107.88 3.15 107.88 4.66C107.88 7.84 114.23 6.69 114.23 8.96C114.23 10.05 113.25 10.60 111.68 10.60C110.07 10.60 108.77 10.05 108.70 8.71L107.60 8.71C107.74 10.37 108.86 11.59 111.61 11.59C113.89 11.59 115.28 10.64 115.28 8.92C115.28 5.68 108.91 6.80 108.91 4.65ZM130.40 2.21L122.88 2.21L122.88 3.22L126.11 3.22L126.11 11.48L127.16 11.48L127.16 3.22L130.40 3.22ZM145.54 3.22L145.54 2.21L138.73 2.21L138.73 11.48L145.54 11.48L145.54 10.47L139.78 10.47L139.78 7.35L144.93 7.35L144.93 6.33L139.78 6.33L139.78 3.22ZM162.04 2.21L158.77 6.61L155.46 2.21L154.24 2.21L154.24 11.48L155.29 11.48L155.29 3.81L158.77 8.22L162.20 3.81L162.20 11.48L163.25 11.48L163.25 2.21ZM188.34 6.75C189.00 6.45 189.59 5.85 189.59 4.66C189.59 3.54 188.85 2.21 186.66 2.21L182.50 2.21L182.50 11.48L186.90 11.48C189.01 11.48 190.06 10.43 190.06 9.04C190.06 7.66 189.13 7 188.34 6.75ZM183.55 3.21L186.77 3.21C188.05 3.21 188.54 3.98 188.54 4.75C188.54 5.88 187.63 6.36 186.66 6.36L183.55 6.36ZM187.01 10.49L183.55 10.49L183.55 7.31L186.90 7.31C188.37 7.31 189.01 8.09 189.01 8.96C189.01 9.93 188.29 10.49 187.01 10.49ZM205.49 2.21L205.49 7.52C205.49 9.67 204.06 10.57 202.59 10.57C201.12 10.57 199.71 9.67 199.71 7.52L199.71 2.21L198.66 2.21L198.66 7.49C198.66 9.95 200.28 11.59 202.59 11.59C204.92 11.59 206.54 9.94 206.54 7.49L206.54 2.21ZM216.75 2.21L215.70 2.21L215.70 11.48L216.75 11.48ZM226.02 2.21L226.02 11.48L232.12 11.48L232.12 10.47L227.07 10.47L227.07 2.21ZM244.38 2.21L240.48 2.21L240.48 11.48L244.38 11.48C246.60 11.48 248.64 9.74 248.64 6.85C248.64 3.95 246.60 2.21 244.38 2.21ZM244.34 10.49L241.53 10.49L241.53 3.21L244.34 3.21C246.32 3.21 247.59 4.86 247.59 6.85C247.59 8.83 246.32 10.49 244.34 10.49ZM264.15 3.22L264.15 2.21L257.33 2.21L257.33 11.48L264.15 11.48L264.15 10.47L258.38 10.47L258.38 7.35L263.54 7.35L263.54 6.33L258.38 6.33L258.38 3.22ZM273.90 7.92L277.12 7.92L279.36 11.48L280.60 11.48L278.17 7.74C279.20 7.50 280.41 6.90 280.41 5.11C280.41 3.35 279.19 2.21 277.28 2.21L272.85 2.21L272.85 11.48L273.90 11.48ZM273.90 3.21L277.16 3.21C278.47 3.21 279.36 3.93 279.36 5.11C279.36 6.55 278.10 6.93 277.10 6.93L273.90 6.93Z"></path></g></svg>